<svg xmlns="http://www.w3.org/2000/svg" version="1.1" xmlns:xlink="http://www.w3.org/1999/xlink" xmlns:svgjs="http://svgjs.dev/svgjs" width="2000" height="636" viewBox="0 0 2000 636"><g transform="matrix(1,0,0,1,-1.2121212121213603,-0.7914181141391623)"><svg viewBox="0 0 396 126" data-background-color="#ffffff" preserveAspectRatio="xMidYMid meet" height="636" width="2000" xmlns="http://www.w3.org/2000/svg" xmlns:xlink="http://www.w3.org/1999/xlink"><g id="tight-bounds" transform="matrix(1,0,0,1,0.24000000000003752,0.15679038110303622)"><svg viewBox="0 0 395.5199999999999 125.68641923779393" height="125.68641923779393" width="395.5199999999999"><g><svg viewBox="0 0 586.7326420757346 186.4490413441274" height="125.68641923779393" width="395.5199999999999"><g transform="matrix(1,0,0,1,191.21264207573464,45.720127838619774)"><svg viewBox="0 0 395.52 95.00878566688786" height="95.00878566688786" width="395.52"><g id="textblocktransform"><svg viewBox="0 0 395.52 95.00878566688786" height="95.00878566688786" width="395.52" id="textblock"><g><svg viewBox="0 0 395.52 95.00878566688786" height="95.00878566688786" width="395.52"><g transform="matrix(1,0,0,1,0,0)"><svg width="395.52" viewBox="4.5 -35.6 150.69 36.2" height="95.00878566688786" data-palette-color="#000000"><path d="M13.7 0.4L13.7 0.4Q10.85 0.4 8.72 0.25 6.6 0.1 4.5-0.1L4.5-0.1 4.5-34.9Q6.85-35.15 9.1-35.27 11.35-35.4 14.25-35.4L14.25-35.4Q18.75-35.4 22.03-34 25.3-32.6 27.43-30.15 29.55-27.7 30.58-24.48 31.6-21.25 31.6-17.55L31.6-17.55Q31.6-13.9 30.55-10.65 29.5-7.4 27.33-4.93 25.15-2.45 21.78-1.03 18.4 0.4 13.7 0.4ZM13.85-3.75L13.85-3.75Q18.35-3.75 21.2-5.5 24.05-7.25 25.4-10.38 26.75-13.5 26.75-17.55L26.75-17.55Q26.75-21.15 25.4-24.3 24.05-27.45 21.25-29.38 18.45-31.3 14.1-31.3L14.1-31.3Q12.65-31.3 11.45-31.23 10.25-31.15 9.25-31.05L9.25-31.05 9.25-4Q10.3-3.85 11.45-3.8 12.6-3.75 13.85-3.75ZM49.05 0.6L49.05 0.6Q45.35 0.6 42.4-1.13 39.45-2.85 37.77-5.93 36.1-9 36.1-13L36.1-13Q36.1-17.2 37.8-20.25 39.5-23.3 42.45-24.95 45.4-26.6 49.05-26.6L49.05-26.6Q52.7-26.6 55.62-24.95 58.55-23.3 60.27-20.28 62-17.25 62-13.1L62-13.1Q62-8.95 60.3-5.88 58.6-2.8 55.67-1.1 52.75 0.6 49.05 0.6ZM49.05-3.4L49.05-3.4Q53-3.4 55.2-6.08 57.4-8.75 57.4-13L57.4-13Q57.4-15.6 56.3-17.78 55.2-19.95 53.32-21.28 51.45-22.6 49.05-22.6L49.05-22.6Q45.1-22.6 42.9-20 40.7-17.4 40.7-13.1L40.7-13.1Q40.7-10.5 41.8-8.28 42.9-6.05 44.77-4.73 46.65-3.4 49.05-3.4ZM78.5 0.6L78.5 0.6Q74.8 0.6 72.02-1.13 69.25-2.85 67.75-5.93 66.25-9 66.25-13L66.25-13Q66.25-16.75 67.77-19.85 69.3-22.95 72.15-24.78 75-26.6 78.84-26.6L78.84-26.6Q81.05-26.6 82.72-26.2 84.4-25.8 85.95-25.05L85.95-25.05 84.59-21.25Q83.2-21.95 81.92-22.28 80.65-22.6 79.09-22.6L79.09-22.6Q75.59-22.6 73.22-20.08 70.84-17.55 70.84-13.1L70.84-13.1Q70.84-10.4 71.84-8.2 72.84-6 74.62-4.7 76.4-3.4 78.8-3.4L78.8-3.4Q80.7-3.4 82.05-3.83 83.4-4.25 84.95-5.05L84.95-5.05 86.34-1.25Q84.8-0.4 82.87 0.1 80.95 0.6 78.5 0.6ZM96.59 0L92.09 0 92.09-35 98.74-35 108.44-12.85 117.99-35 124.79-35 124.79 0 120.04 0 120.04-28.95 110.69-7.9 105.99-7.9 96.59-28.95 96.59 0ZM142.49 0.6L142.49 0.6Q138.84 0.6 135.84-0.38 132.84-1.35 130.79-2.95L130.79-2.95 133.19-6.95Q134.99-5.45 137.24-4.5 139.49-3.55 142.49-3.55L142.49-3.55Q146.09-3.55 148.19-5.05 150.29-6.55 150.29-9.1L150.29-9.1Q150.29-10.55 149.69-11.68 149.09-12.8 147.37-13.88 145.64-14.95 142.29-16.2L142.29-16.2Q138.69-17.6 136.54-19.03 134.39-20.45 133.47-22.28 132.54-24.1 132.54-26.6L132.54-26.6Q132.54-29.1 133.92-31.13 135.29-33.15 137.97-34.38 140.64-35.6 144.44-35.6L144.44-35.6Q147.54-35.6 150.02-34.98 152.49-34.35 154.84-33.2L154.84-33.2 153.09-29.15Q151.39-30.15 149.12-30.83 146.84-31.5 144.34-31.5L144.34-31.5Q141.04-31.5 139.14-30.2 137.24-28.9 137.24-26.85L137.24-26.85Q137.24-25.55 137.79-24.55 138.34-23.55 139.97-22.6 141.59-21.65 144.84-20.45L144.84-20.45Q148.74-19 151.02-17.4 153.29-15.8 154.24-13.93 155.19-12.05 155.19-9.65L155.19-9.65Q155.19-6.4 153.57-4.1 151.94-1.8 149.07-0.6 146.19 0.6 142.49 0.6Z" opacity="1" transform="matrix(1,0,0,1,0,0)" fill="#000000" class="wordmark-text-0" data-fill-palette-color="primary" id="text-0"></path></svg></g></svg></g></svg></g></svg></g><g><svg viewBox="0 0 168.78334799063842 186.4490413441274" height="186.4490413441274" width="168.78334799063842"><g><svg version="1.1" xmlns="http://www.w3.org/2000/svg" xmlns:xlink="http://www.w3.org/1999/xlink" x="0" y="0" viewBox="0 0 90.527 100.002" enable-background="new 0 0 90.527 100.001" xml:space="preserve" id="icon-0" width="168.78334799063842" height="186.4490413441274" class="icon-icon-0" data-fill-palette-color="accent"><rect x="16.842" y="56.843" fill="#de3232" width="37.895" height="6.315" data-fill-palette-color="accent"></rect><rect x="16.842" y="37.895" fill="#de3232" width="37.895" height="6.315" data-fill-palette-color="accent"></rect><rect x="16.842" y="18.948" fill="#de3232" width="37.895" height="6.315" data-fill-palette-color="accent"></rect><path fill="#de3232" d="M86.316 14.738H71.58V4.21C71.58 1.578 70.002 0 67.369 0H4.21C1.578 0 0 1.578 0 4.21V82.105C0 84.739 1.578 86.318 4.21 86.318H18.947V95.792C18.947 98.424 20.526 100.002 23.158 100.002H86.316C88.949 100.002 90.527 98.424 90.527 95.792V18.948C90.527 16.315 88.949 14.738 86.316 14.738M6.316 77.896V8.421C6.316 7.105 7.105 6.315 8.421 6.315H63.158C64.474 6.315 65.263 7.105 65.263 8.421V77.896C65.263 79.211 64.474 80 63.158 80H8.421C7.105 80 6.316 79.211 6.316 77.896M84.21 91.579C84.21 92.895 83.421 93.683 82.106 93.683H28.421C27.105 93.683 26.316 92.896 26.316 91.579V86.315H67.369C70.002 86.315 71.58 84.737 71.58 82.104V22.106H82.106C83.421 22.106 84.21 22.894 84.21 24.21z" data-fill-palette-color="accent"></path></svg></g></svg></g></svg></g><defs></defs></svg><rect width="395.5199999999999" height="125.68641923779393" fill="none" stroke="none" visibility="hidden"></rect></g></svg></g></svg>