<svg xmlns="http://www.w3.org/2000/svg" version="1.1" xmlns:xlink="http://www.w3.org/1999/xlink" xmlns:svgjs="http://svgjs.dev/svgjs" width="128" height="128" viewBox="0 0 128 128"><g transform="matrix(0.8046875,0,0,0.8046875,12.165164866875074,6.962832153320306)"><svg viewBox="0 0 87 96" data-background-color="#000000" preserveAspectRatio="xMidYMid meet" height="141" width="128" xmlns="http://www.w3.org/2000/svg" xmlns:xlink="http://www.w3.org/1999/xlink"><g id="tight-bounds" transform="matrix(1,0,0,1,0.28282190856182865,0.25950000000000273)"><svg viewBox="0 0 86.43435618287634 95.481" height="95.481" width="86.43435618287634"><g><svg viewBox="0 0 86.43435618287634 95.481" height="95.481" width="86.43435618287634"><g><svg viewBox="0 0 86.43435618287634 95.481" height="95.481" width="86.43435618287634"><g id="textblocktransform"><svg viewBox="0 0 86.43435618287634 95.481" height="95.481" width="86.43435618287634" id="textblock"><g><svg viewBox="0 0 86.43435618287634 95.481" height="95.481" width="86.43435618287634"><g><svg viewBox="0 0 86.43435618287634 95.481" height="95.481" width="86.43435618287634"><g><svg version="1.1" xmlns="http://www.w3.org/2000/svg" xmlns:xlink="http://www.w3.org/1999/xlink" x="0" y="0" viewBox="0 0 90.527 100.002" enable-background="new 0 0 90.527 100.001" xml:space="preserve" id="icon-0" width="86.43435618287634" height="95.481" class="icon-icon-0" data-fill-palette-color="accent"><rect x="16.842" y="56.843" fill="#de3232" width="37.895" height="6.315" data-fill-palette-color="accent"></rect><rect x="16.842" y="37.895" fill="#de3232" width="37.895" height="6.315" data-fill-palette-color="accent"></rect><rect x="16.842" y="18.948" fill="#de3232" width="37.895" height="6.315" data-fill-palette-color="accent"></rect><path fill="#de3232" d="M86.316 14.738H71.58V4.21C71.58 1.578 70.002 0 67.369 0H4.21C1.578 0 0 1.578 0 4.21V82.105C0 84.739 1.578 86.318 4.21 86.318H18.947V95.792C18.947 98.424 20.526 100.002 23.158 100.002H86.316C88.949 100.002 90.527 98.424 90.527 95.792V18.948C90.527 16.315 88.949 14.738 86.316 14.738M6.316 77.896V8.421C6.316 7.105 7.105 6.315 8.421 6.315H63.158C64.474 6.315 65.263 7.105 65.263 8.421V77.896C65.263 79.211 64.474 80 63.158 80H8.421C7.105 80 6.316 79.211 6.316 77.896M84.21 91.579C84.21 92.895 83.421 93.683 82.106 93.683H28.421C27.105 93.683 26.316 92.896 26.316 91.579V86.315H67.369C70.002 86.315 71.58 84.737 71.58 82.104V22.106H82.106C83.421 22.106 84.21 22.894 84.21 24.21z" data-fill-palette-color="accent"></path></svg></g></svg></g></svg></g></svg></g></svg></g></svg></g><defs></defs></svg><rect width="86.43435618287634" height="95.481" fill="none" stroke="none" visibility="hidden"></rect></g></svg></g></svg>