<svg xmlns="http://www.w3.org/2000/svg" version="1.1" xmlns:xlink="http://www.w3.org/1999/xlink" xmlns:svgjs="http://svgjs.dev/svgjs" width="2000" height="434" viewBox="0 0 2000 434"><g transform="matrix(1,0,0,1,-1.2121212121212466,-1.211639885408573)"><svg viewBox="0 0 396 86" data-background-color="#000000" preserveAspectRatio="xMidYMid meet" height="434" width="2000" xmlns="http://www.w3.org/2000/svg" xmlns:xlink="http://www.w3.org/1999/xlink"><g id="tight-bounds" transform="matrix(1,0,0,1,0.2400000000000091,0.24009453950492343)"><svg viewBox="0 0 395.52 85.51981092099015" height="85.51981092099015" width="395.52"><g><svg viewBox="0 0 515.4496717112926 111.45114902921772" height="85.51981092099015" width="395.52"><g transform="matrix(1,0,0,1,119.92967171129257,15.403161696512726)"><svg viewBox="0 0 395.52 80.64482563619227" height="80.64482563619227" width="395.52"><g id="textblocktransform"><svg viewBox="0 0 395.52 80.64482563619227" height="80.64482563619227" width="395.52" id="textblock"><g><svg viewBox="0 0 395.52 80.64482563619227" height="80.64482563619227" width="395.52"><g transform="matrix(1,0,0,1,0,0)"><svg width="395.52" viewBox="2.5 -32 159.14 32.45" height="80.64482563619227" data-palette-color="#ffffff"><path d="M14.5 0L2.5 0 2.5-30.05Q4.85-31.05 7.9-31.53 10.95-32 13.85-32L13.85-32Q22.4-32 26.85-27.88 31.3-23.75 31.3-15.85L31.3-15.85Q31.3-10.25 29.18-6.75 27.05-3.25 23.25-1.63 19.45 0 14.5 0L14.5 0ZM11.1-24.75L11.1-6.5 14.05-6.5Q17.85-6.5 20.03-8.8 22.2-11.1 22.2-15.85L22.2-15.85Q22.2-20.45 20.1-22.78 18-25.1 14-25.1L14-25.1Q13.3-25.1 12.55-25.03 11.8-24.95 11.1-24.75L11.1-24.75ZM48.8 0.45L48.8 0.45Q44.65 0.45 41.62-1.2 38.6-2.85 36.95-5.9 35.3-8.95 35.3-13.1L35.3-13.1Q35.3-19.35 38.92-22.73 42.55-26.1 48.7-26.1L48.7-26.1Q54.85-26.1 58.5-22.7 62.15-19.3 62.15-13L62.15-13Q62.15-8.9 60.55-5.88 58.95-2.85 55.95-1.2 52.95 0.45 48.8 0.45ZM48.8-6.25L48.8-6.25Q51.3-6.25 52.62-8.1 53.95-9.95 53.95-13L53.95-13Q53.95-16.25 52.52-17.88 51.1-19.5 48.7-19.5L48.7-19.5Q46.3-19.5 44.87-17.88 43.45-16.25 43.45-13.05L43.45-13.05Q43.45-9.95 44.9-8.1 46.35-6.25 48.8-6.25ZM79.65 0.2L79.65 0.2Q75.7 0.2 72.65-1.4 69.6-3 67.87-6.05 66.15-9.1 66.15-13.45L66.15-13.45Q66.15-19.35 69.45-22.8 72.75-26.25 79-26.25L79-26.25Q81.35-26.25 83.62-25.73 85.9-25.2 87.75-24.1L87.75-24.1 85.8-18.45Q83.8-19.65 81-19.65L81-19.65Q77.8-19.65 76.12-18.05 74.45-16.45 74.45-13.45L74.45-13.45Q74.45-10.1 76.4-8.25 78.35-6.4 81.55-6.4L81.55-6.4Q83-6.4 84.42-6.8 85.85-7.2 86.85-7.95L86.85-7.95 89.05-3Q87.55-1.8 85.3-0.8 83.05 0.2 79.65 0.2ZM102.04 0L93.04 0 96.04-31.8 106.04-31.8 112.59-14.05 112.74-13.45 112.84-14.05 119.74-31.8 129.74-31.8 132.24 0 123.24 0 122.24-19.25 122.09-20.1 121.99-20.1 121.74-19.25 115.74-3 109.74-3 103.69-19.25 103.49-20.1 103.34-20.1 103.19-19.25 102.04 0ZM149.04 0.45L149.04 0.45Q145.24 0.45 141.77-0.68 138.29-1.8 136.24-3.55L136.24-3.55 138.99-9.7Q140.04-8.9 141.59-8.25 143.14-7.6 144.94-7.2 146.74-6.8 148.39-6.8L148.39-6.8Q150.79-6.8 151.69-7.55 152.59-8.3 152.59-9.3L152.59-9.3Q152.59-10.3 151.87-10.9 151.14-11.5 149.54-12.1L149.54-12.1 145.34-13.65Q141.44-15.1 139.06-17.18 136.69-19.25 136.69-22.9L136.69-22.9Q136.69-27.15 140.02-29.58 143.34-32 149.49-32L149.49-32Q153.49-32 156.42-31.03 159.34-30.05 161.19-28.45L161.19-28.45 158.64-22.6Q157.59-23.2 156.04-23.7 154.49-24.2 152.81-24.48 151.14-24.75 149.64-24.75L149.64-24.75Q147.59-24.75 146.67-24.2 145.74-23.65 145.74-22.75L145.74-22.75Q145.74-22 146.44-21.38 147.14-20.75 148.79-20.15L148.79-20.15 152.44-18.8Q157.49-16.95 159.56-14.88 161.64-12.8 161.64-9.55L161.64-9.55Q161.64-5.2 158.42-2.38 155.19 0.45 149.04 0.45Z" opacity="1" transform="matrix(1,0,0,1,0,0)" fill="#ffffff" class="wordmark-text-0" data-fill-palette-color="primary" id="text-0"></path></svg></g></svg></g></svg></g></svg></g><g><svg viewBox="0 0 100.89136385440284 111.45114902921772" height="111.45114902921772" width="100.89136385440284"><g><svg version="1.1" xmlns="http://www.w3.org/2000/svg" xmlns:xlink="http://www.w3.org/1999/xlink" x="0" y="0" viewBox="0 0 90.527 100.002" enable-background="new 0 0 90.527 100.001" xml:space="preserve" id="icon-0" width="100.89136385440284" height="111.45114902921772" class="icon-icon-0" data-fill-palette-color="accent"><rect x="16.842" y="56.843" fill="#ffffff" width="37.895" height="6.315" data-fill-palette-color="accent"></rect><rect x="16.842" y="37.895" fill="#ffffff" width="37.895" height="6.315" data-fill-palette-color="accent"></rect><rect x="16.842" y="18.948" fill="#ffffff" width="37.895" height="6.315" data-fill-palette-color="accent"></rect><path fill="#ffffff" d="M86.316 14.738H71.58V4.21C71.58 1.578 70.002 0 67.369 0H4.21C1.578 0 0 1.578 0 4.21V82.105C0 84.739 1.578 86.318 4.21 86.318H18.947V95.792C18.947 98.424 20.526 100.002 23.158 100.002H86.316C88.949 100.002 90.527 98.424 90.527 95.792V18.948C90.527 16.315 88.949 14.738 86.316 14.738M6.316 77.896V8.421C6.316 7.105 7.105 6.315 8.421 6.315H63.158C64.474 6.315 65.263 7.105 65.263 8.421V77.896C65.263 79.211 64.474 80 63.158 80H8.421C7.105 80 6.316 79.211 6.316 77.896M84.21 91.579C84.21 92.895 83.421 93.683 82.106 93.683H28.421C27.105 93.683 26.316 92.896 26.316 91.579V86.315H67.369C70.002 86.315 71.58 84.737 71.58 82.104V22.106H82.106C83.421 22.106 84.21 22.894 84.21 24.21z" data-fill-palette-color="accent"></path></svg></g></svg></g></svg></g><defs></defs></svg><rect width="395.52" height="85.51981092099015" fill="none" stroke="none" visibility="hidden"></rect></g></svg></g></svg>