<?xml version="1.0" encoding="utf-8"?>
<!-- Svg Vector Icons : http://www.onlinewebfonts.com/icon -->
<!DOCTYPE svg PUBLIC "-//W3C//DTD SVG 1.1//EN" "http://www.w3.org/Graphics/SVG/1.1/DTD/svg11.dtd">
<svg version="1.1" xmlns="http://www.w3.org/2000/svg" xmlns:xlink="http://www.w3.org/1999/xlink" x="0px" y="0px" viewBox="0 0 256 256" enable-background="new 0 0 256 256" xml:space="preserve">
<metadata> Svg Vector Icons : http://www.onlinewebfonts.com/icon </metadata>
<g><g><g><path fill="#000000" d="M127.4,14.3c-2.4,2.4-5.1,5.1-5.9,6.1l-1.5,1.8l0.2-3.3l0.3-3.3l-2.9,2.2c-1.6,1.2-6.8,4.9-11.7,8c-10,6.5-13.1,9.5-15.7,14.9c-2.5,5.3-3.2,9.7-2.8,18.8c0.2,4.2,0.5,9.4,0.7,11.6c0.4,3.4,0.4,3.9-0.3,4.3c-1.5,0.9-2.9,2.5-3.2,3.7c-0.3,1.2,0.3,9.5,1.2,17c0.2,2.1,0.8,4.3,1.4,5.4c1,1.7,1.5,2.1,4.1,3.1c1,0.4,1.3,1.1,2,4.3c2,8.9,6.4,19.7,10.4,25.9c1.8,2.7,1.9,3.1,1.7,5c-0.2,1.2-0.4,2.3-0.5,2.4c-0.1,0.2-1.8-0.5-3.8-1.5c-14.7-7.4-31.8-7.4-46.6,0.1c-22.6,11.4-33.7,38-25.9,62c1.3,4,4.3,10.1,6.4,13.2c8,11.7,21,19.9,35,22c4.6,0.7,10.8,0.8,14.3,0.3c1.7-0.3,3.1,0,7.9,1.6c12.9,4.3,22.7,5.9,37.2,5.9c11,0,14.7-0.4,24.5-2.3c17.6-3.6,35.5-12.1,49.9-23.7c8.5-6.9,18.1-17.2,23.7-25.6l2.1-3.1l-2.1-2.8c-1.2-1.5-3.2-3.7-4.5-4.9c-3.4-3-15.7-9-22.3-10.9c-7.6-2.2-16.5-5.8-26.3-10.7c-4.8-2.4-10.6-5.2-12.8-6.2c-4.6-2.1-4.3-1.3-5.9-11l-0.9-5.1l2.4-3.2c5.5-7.3,9.7-17.6,12.5-30.5c0.8-3.6,0.8-3.6,2.3-3.6c3.1,0,4.3-2.9,4.9-12.2c0.6-9,0.4-10.7-1.8-12.8c-0.9-0.9-2-1.8-2.4-2.1c-0.7-0.4-0.7-1.1-0.4-6.7c1.1-15.9,0.4-22.7-2.9-28.8c-1.8-3.3-6.4-8.1-10.1-10.6c-4.4-2.9-17.6-10.1-21-11.5l-3.2-1.3l-0.2,1.9l-0.2,1.9l-0.9-1.6c-0.6-1.1-1-2.9-1.1-5.2c-0.1-1.9-0.4-3.6-0.6-3.6C131.9,10,129.8,12,127.4,14.3z M114.6,71.5c6.4,2.4,10.7,3.2,16.4,3.2c6,0,9.7-0.7,16.3-3.1c4.3-1.5,4.9-1.6,6.6-1.2c2.3,0.7,4.7,3.5,5.7,6.7c1.1,3.2,1.4,12.3,0.7,17.7c-2.9,21.7-11,38-20.8,41.9c-2.2,0.9-3.5,1-8.4,1c-4.9,0-6.2-0.1-8.4-1c-9.8-3.8-18-20.6-20.7-42.1c-1.5-12.6,0.8-21.9,6-24C109.9,69.9,110.5,70,114.6,71.5z M122.6,148.7c3.9,1.3,10.6,1.6,15,0.7c1.9-0.4,3.5-0.6,3.6-0.6c0.1,0.1,0.5,1.9,0.9,4c1.9,10.1,3.1,11.2,21.3,20.2c14.1,7,22.6,10.5,31.4,13.2c5.4,1.6,13.2,4.8,14.8,6c0.7,0.6,0.2,1.2-5.2,6.8c-9.8,10.1-18.1,16.1-30,22c-15.3,7.5-31.3,10.9-48.1,10.3c-6.6-0.3-16-1.4-17.2-2.1c-0.4-0.2,0.7-1.4,2.8-3.1c8.8-7.4,15.3-19.1,17.1-30.9c2.2-13.2-1.2-27.5-9.1-38.3c-2.1-3-2.3-3.2-1.8-4.9c0.2-0.9,0.6-2.3,0.7-3C119.2,147.5,119.1,147.5,122.6,148.7z M86.8,151.1c9.7,2.6,17,7.9,22.2,15.9c4.1,6.3,5.8,12,5.8,20c0,10.4-3.5,18.9-10.7,26.1c-7.2,7.2-15.6,10.7-26.1,10.7c-8,0-13.7-1.7-20-5.8c-10-6.5-16-16.9-16.8-28.9c-1.2-18.5,11.7-34.8,30.6-38.5C74.9,150,83.7,150.3,86.8,151.1z"/><path fill="#000000" d="M75.5,164.4C69.9,167,69,173,73.4,178l1.5,1.7h-9c-8.4,0-9.1,0-11,1c-2.6,1.3-3.7,3-4,5.6c-0.4,3,0.8,5.5,3.3,7c1.9,1.1,2.2,1.1,11.5,1.1h9.6l-1.9,2.1c-1,1.2-2.1,2.9-2.4,3.7c-1.2,3.8,0.6,8.2,4.4,9.9c4.6,2.1,6.1,1.2,16.6-9.2c10.5-10.4,11.6-12.2,9.8-16.6c-1-2.3-17.4-18.8-19.9-20C79.6,163.3,77.8,163.3,75.5,164.4z"/></g></g></g>
</svg>